solid P0
  facet normal -0.114832 -0.707107 0.697720
    outer loop
      vertex 0.104059 -0.707107 -0.221747
      vertex 0.975952 0.000000 0.638371
      vertex -1.984224 0.000000 0.151179
    endloop
  endfacet
  facet normal -0.114832 0.707107 0.697720
    outer loop
      vertex 0.104059 0.707107 -0.221747
      vertex -1.984224 0.000000 0.151179
      vertex 0.975952 0.000000 0.638371
    endloop
  endfacet
  facet normal -0.175799 -0.000000 -0.984426
    outer loop
      vertex 0.104059 0.707107 -0.221747
      vertex 0.104059 -0.707107 -0.221747
      vertex -1.984224 0.000000 0.151179
    endloop
  endfacet
  facet normal 0.696094 -0.707107 -0.124309
    outer loop
      vertex 0.800154 -0.000000 -0.346055
      vertex 0.975952 0.000000 0.638371
      vertex 0.104059 -0.707107 -0.221747
    endloop
  endfacet
  facet normal 0.696094 0.707107 -0.124309
    outer loop
      vertex 0.800154 -0.000000 -0.346055
      vertex 0.104059 0.707107 -0.221747
      vertex 0.975952 0.000000 0.638371
    endloop
  endfacet
  facet normal -0.175799 -0.000000 -0.984426
    outer loop
      vertex 0.800154 -0.000000 -0.346055
      vertex 0.104059 -0.707107 -0.221747
      vertex 0.104059 0.707107 -0.221747
    endloop
  endfacet
endsolid P0
